<?xml version="1.0" encoding="UTF-8" standalone="no"?>
<!DOCTYPE svg PUBLIC "-//W3C//DTD SVG 1.1//EN"
 "http://www.w3.org/Graphics/SVG/1.1/DTD/svg11.dtd">
<!-- Generated by graphviz version 2.40.1 (20161225.0304)
 -->
<!-- Title: import Pages: 1 -->
<svg width="191pt" height="152pt"
 viewBox="0.00 0.00 191.00 152.00" xmlns="http://www.w3.org/2000/svg" xmlns:xlink="http://www.w3.org/1999/xlink">
<g id="graph0" class="graph" transform="scale(1 1) rotate(0) translate(4 148)">
<title>import</title>
<g id="a_graph0"><a xlink:href=".">
<polygon fill="#ffffff" stroke="transparent" points="-4,4 -4,-148 187,-148 187,4 -4,4"/>
</a>
</g>
<!-- conf -->
<g id="node1" class="node">
<title>conf</title>
<polygon fill="none" stroke="#000000" points="182.5,-36 128.5,-36 128.5,0 182.5,0 182.5,-36"/>
<text text-anchor="middle" x="155.5" y="-14.3" font-family="Times,serif" font-size="14.00" fill="#000000">conf</text>
</g>
<!-- engine.engine -->
<g id="node2" class="node">
<title>engine.engine</title>
<polygon fill="none" stroke="#000000" points="92,-36 0,-36 0,0 92,0 92,-36"/>
<text text-anchor="middle" x="46" y="-14.3" font-family="Times,serif" font-size="14.00" fill="#000000">engine.engine</text>
</g>
<!-- engine.engine&#45;&gt;conf -->
<g id="edge1" class="edge">
<title>engine.engine&#45;&gt;conf</title>
<path fill="none" stroke="#000000" d="M92.1205,-18C100.833,-18 109.8445,-18 118.2425,-18"/>
<polygon fill="#000000" stroke="#000000" points="118.4831,-21.5001 128.4831,-18 118.483,-14.5001 118.4831,-21.5001"/>
</g>
<!-- corpse -->
<g id="node3" class="node">
<title>corpse</title>
<polygon fill="none" stroke="#000000" points="182.5,-144 128.5,-144 128.5,-108 182.5,-108 182.5,-144"/>
<text text-anchor="middle" x="155.5" y="-122.3" font-family="Times,serif" font-size="14.00" fill="#000000">corpse</text>
</g>
<!-- engine.force -->
<g id="node4" class="node">
<title>engine.force</title>
<polygon fill="none" stroke="#000000" points="88,-117 4,-117 4,-81 88,-81 88,-117"/>
<text text-anchor="middle" x="46" y="-95.3" font-family="Times,serif" font-size="14.00" fill="#000000">engine.force</text>
</g>
<!-- engine.force&#45;&gt;corpse -->
<g id="edge2" class="edge">
<title>engine.force&#45;&gt;corpse</title>
<path fill="none" stroke="#000000" d="M88.0224,-109.3617C98.0492,-111.8341 108.679,-114.4551 118.4629,-116.8676"/>
<polygon fill="#000000" stroke="#000000" points="117.7447,-120.2952 128.2919,-119.2912 119.4206,-113.4988 117.7447,-120.2952"/>
</g>
<!-- numpy -->
<g id="node5" class="node">
<title>numpy</title>
<polygon fill="none" stroke="#000000" points="183,-90 128,-90 128,-54 183,-54 183,-90"/>
<text text-anchor="middle" x="155.5" y="-68.3" font-family="Times,serif" font-size="14.00" fill="#000000">numpy</text>
</g>
<!-- engine.force&#45;&gt;numpy -->
<g id="edge3" class="edge">
<title>engine.force&#45;&gt;numpy</title>
<path fill="none" stroke="#000000" d="M88.0224,-88.6383C97.9597,-86.188 108.4892,-83.5917 118.2006,-81.1971"/>
<polygon fill="#000000" stroke="#000000" points="119.0945,-84.5816 127.9657,-78.7893 117.4186,-77.7852 119.0945,-84.5816"/>
</g>
</g>
</svg>
